<!DOCTYPE svg PUBLIC "-//W3C//DTD SVG 1.1//EN" "https://www.w3.org/Graphics/SVG/1.1/DTD/svg11.dtd"><svg xmlns="http://www.w3.org/2000/svg" class="sc-itUGML jDegDW graph" data-testid="graph" width="640" height="1004"><g transform="translate(12,12)" class="new-look-graph"><g class="nodes"><g class="node-container" transform="translate(261,22)"><g><circle class="sc-gITdmR dOOrib shape" r="22"/><text class="sc-brCFrO iUlozD label"><tspan xml:space="preserve" text-anchor="middle" alignment-baseline="central">Start</tspan></text></g></g><g class="node-container" transform="translate(261,103.5)"><g class="sc-bWXABl pTcXL node state Task" data-testid="graph-L-2_1: objects_in_s3" data-state-id="L-2_1: objects_in_s3" data-state-type="Task"><g class="new-look-state-node "><rect x="-174.5" y="-24.5" width="349" height="49" rx="3" ry="3"/><g class="handle" transform="translate(-174.5,-24.5)"><path d="M5,16 L5,34 M8,16 L8,34"/></g><g class="icon" transform="translate(-158.5,-24)"><rect fill="var(--color-background-container-header-g9rg0j, #fafafa)" x="0.0361026108" y="0.0181291967" width="48" height="48"/><line x1="47.5" y1="0.49122807" x2="47.5" y2="47.5" stroke="var(--color-text-home-header-secondary-g5rqe4, #d5dbdb)" stroke-linecap="square"/><line x1="0.5" y1="0.49122807" x2="0.5" y2="47.5" stroke="var(--color-text-home-header-secondary-g5rqe4, #d5dbdb)" stroke-linecap="square"/><use href="#icon-service-lam"/></g><g class="text-lines" transform="translate(-102.5,-24.5)"><text transform="translate(0,17)" class="line1"><tspan xml:space="preserve" text-anchor="start">Lambda: Invoke</tspan></text><text transform="translate(0,35.5)" class="line2 label"><tspan xml:space="preserve" text-anchor="start">L-2_1: objects_in_s3</tspan></text></g></g></g></g><g class="node-container" transform="translate(261,187.5)"><g class="sc-bWXABl pTcXL node state Choice" data-testid="graph-Has pipeline run today?" data-state-id="Has pipeline run today?" data-state-type="Choice"><g class="new-look-state-node "><rect x="-151" y="-24.5" width="302" height="49" rx="3" ry="3"/><g class="handle" transform="translate(-151,-24.5)"><path d="M5,16 L5,34 M8,16 L8,34"/></g><g class="icon" transform="translate(-135,-24)"><rect fill="var(--color-background-container-header-g9rg0j, #fafafa)" x="0.0361026108" y="0.0181291967" width="48" height="48"/><line x1="47.5" y1="0.49122807" x2="47.5" y2="47.5" stroke="var(--color-text-home-header-secondary-g5rqe4, #d5dbdb)" stroke-linecap="square"/><line x1="0.5" y1="0.49122807" x2="0.5" y2="47.5" stroke="var(--color-text-home-header-secondary-g5rqe4, #d5dbdb)" stroke-linecap="square"/><use href="#icon-flow-choice"/></g><g class="text-lines" transform="translate(-79,-24.5)"><text transform="translate(0,17)" class="line1"><tspan xml:space="preserve" text-anchor="start">Choice state</tspan></text><text transform="translate(0,35.5)" class="line2 label"><tspan xml:space="preserve" text-anchor="start">Has pipeline run today?</tspan></text></g></g></g></g><g class="node-container" transform="translate(120,876)"><g class="sc-bWXABl pTcXL node state Fail" data-testid="graph-Yes - raise error" data-state-id="Yes - raise error" data-state-type="Fail"><g class="new-look-state-node "><rect x="-120" y="-24.5" width="240" height="49" rx="3" ry="3"/><g class="handle" transform="translate(-120,-24.5)"><path d="M5,16 L5,34 M8,16 L8,34"/></g><g class="icon" transform="translate(-104,-24)"><rect fill="var(--color-background-container-header-g9rg0j, #fafafa)" x="0.0361026108" y="0.0181291967" width="48" height="48"/><line x1="47.5" y1="0.49122807" x2="47.5" y2="47.5" stroke="var(--color-text-home-header-secondary-g5rqe4, #d5dbdb)" stroke-linecap="square"/><line x1="0.5" y1="0.49122807" x2="0.5" y2="47.5" stroke="var(--color-text-home-header-secondary-g5rqe4, #d5dbdb)" stroke-linecap="square"/><use href="#icon-flow-fail"/></g><g class="text-lines" transform="translate(-48,-24.5)"><text transform="translate(0,17)" class="line1"><tspan xml:space="preserve" text-anchor="start">Fail state</tspan></text><text transform="translate(0,35.5)" class="line2 label"><tspan xml:space="preserve" text-anchor="start">Yes - raise error</tspan></text></g></g></g></g><g class="node-container" transform="translate(402,288)"><g class="sc-bWXABl pTcXL node state Pass" data-testid="graph-No - start pipeline" data-state-id="No - start pipeline" data-state-type="Pass"><g class="new-look-state-node "><rect x="-120" y="-24.5" width="240" height="49" rx="3" ry="3"/><g class="handle" transform="translate(-120,-24.5)"><path d="M5,16 L5,34 M8,16 L8,34"/></g><g class="icon" transform="translate(-104,-24)"><rect fill="var(--color-background-container-header-g9rg0j, #fafafa)" x="0.0361026108" y="0.0181291967" width="48" height="48"/><line x1="47.5" y1="0.49122807" x2="47.5" y2="47.5" stroke="var(--color-text-home-header-secondary-g5rqe4, #d5dbdb)" stroke-linecap="square"/><line x1="0.5" y1="0.49122807" x2="0.5" y2="47.5" stroke="var(--color-text-home-header-secondary-g5rqe4, #d5dbdb)" stroke-linecap="square"/><use href="#icon-flow-pass"/></g><g class="text-lines" transform="translate(-48,-24.5)"><text transform="translate(0,17)" class="line1"><tspan xml:space="preserve" text-anchor="start">Pass state</tspan></text><text transform="translate(0,35.5)" class="line2 label"><tspan xml:space="preserve" text-anchor="start">No - start pipeline</tspan></text></g></g></g></g><g class="node-container" transform="translate(261,957.5)"><g><circle class="sc-gITdmR dOOrib shape" r="22"/><text class="sc-brCFrO iUlozD label"><tspan xml:space="preserve" text-anchor="middle" alignment-baseline="central">End</tspan></text></g></g><g class="node-container" transform="translate(402,372)"><g class="sc-bWXABl pTcXL node state Task" data-testid="graph-L-2_2: cities_to_sqs_passes" data-state-id="L-2_2: cities_to_sqs_passes" data-state-type="Task"><g class="new-look-state-node "><rect x="-136" y="-24.5" width="272" height="49" rx="3" ry="3"/><g class="handle" transform="translate(-136,-24.5)"><path d="M5,16 L5,34 M8,16 L8,34"/></g><g class="icon" transform="translate(-120,-24)"><rect fill="var(--color-background-container-header-g9rg0j, #fafafa)" x="0.0361026108" y="0.0181291967" width="48" height="48"/><line x1="47.5" y1="0.49122807" x2="47.5" y2="47.5" stroke="var(--color-text-home-header-secondary-g5rqe4, #d5dbdb)" stroke-linecap="square"/><line x1="0.5" y1="0.49122807" x2="0.5" y2="47.5" stroke="var(--color-text-home-header-secondary-g5rqe4, #d5dbdb)" stroke-linecap="square"/><use href="#icon-service-lam"/></g><g class="text-lines" transform="translate(-64,-24.5)"><text transform="translate(0,17)" class="line1"><tspan xml:space="preserve" text-anchor="start">Lambda: Invoke</tspan></text><text transform="translate(0,35.5)" class="line2 label"><tspan xml:space="preserve" text-anchor="start">L-2_2: cities_to_sqs_passes</tspan></text></g></g></g></g><g class="node-container" transform="translate(402,456)"><g class="sc-bWXABl pTcXL node state Pass" data-testid="graph-L-2_3: iss_weather_queue" data-state-id="L-2_3: iss_weather_queue" data-state-type="Pass"><g class="new-look-state-node "><rect x="-145" y="-24.5" width="290" height="49" rx="3" ry="3"/><g class="handle" transform="translate(-145,-24.5)"><path d="M5,16 L5,34 M8,16 L8,34"/></g><g class="icon" transform="translate(-129,-24)"><rect fill="var(--color-background-container-header-g9rg0j, #fafafa)" x="0.0361026108" y="0.0181291967" width="48" height="48"/><line x1="47.5" y1="0.49122807" x2="47.5" y2="47.5" stroke="var(--color-text-home-header-secondary-g5rqe4, #d5dbdb)" stroke-linecap="square"/><line x1="0.5" y1="0.49122807" x2="0.5" y2="47.5" stroke="var(--color-text-home-header-secondary-g5rqe4, #d5dbdb)" stroke-linecap="square"/><use href="#icon-flow-pass"/></g><g class="text-lines" transform="translate(-73,-24.5)"><text transform="translate(0,17)" class="line1"><tspan xml:space="preserve" text-anchor="start">Pass state</tspan></text><text transform="translate(0,35.5)" class="line2 label"><tspan xml:space="preserve" text-anchor="start">L-2_3: iss_weather_queue</tspan></text></g></g></g></g><g class="node-container" transform="translate(402,540)"><g class="sc-bWXABl pTcXL node state Wait" data-testid="graph-Wait for all messages to be processed" data-state-id="Wait for all messages to be processed" data-state-type="Wait"><g class="new-look-state-node "><rect x="-160" y="-24.5" width="320" height="49" rx="3" ry="3"/><g class="handle" transform="translate(-160,-24.5)"><path d="M5,16 L5,34 M8,16 L8,34"/></g><g class="icon" transform="translate(-144,-24)"><rect fill="var(--color-background-container-header-g9rg0j, #fafafa)" x="0.0361026108" y="0.0181291967" width="48" height="48"/><line x1="47.5" y1="0.49122807" x2="47.5" y2="47.5" stroke="var(--color-text-home-header-secondary-g5rqe4, #d5dbdb)" stroke-linecap="square"/><line x1="0.5" y1="0.49122807" x2="0.5" y2="47.5" stroke="var(--color-text-home-header-secondary-g5rqe4, #d5dbdb)" stroke-linecap="square"/><use href="#icon-flow-wait"/></g><g class="text-lines" transform="translate(-88,-24.5)"><text transform="translate(0,17)" class="line1"><tspan xml:space="preserve" text-anchor="start">Wait state</tspan></text><text transform="translate(0,35.5)" class="line2 label"><tspan xml:space="preserve" text-anchor="start">Wait for all messages to be processed</tspan></text></g></g></g></g><g class="node-container" transform="translate(402,624)"><g class="sc-bWXABl pTcXL node state Task" data-testid="graph-G-2_1: weather_json_compact" data-state-id="G-2_1: weather_json_compact" data-state-type="Task"><g class="new-look-state-node "><rect x="-186" y="-24.5" width="372" height="49" rx="3" ry="3"/><g class="handle" transform="translate(-186,-24.5)"><path d="M5,16 L5,34 M8,16 L8,34"/></g><g class="icon" transform="translate(-170,-24)"><rect fill="var(--color-background-container-header-g9rg0j, #fafafa)" x="0.0361026108" y="0.0181291967" width="48" height="48"/><line x1="47.5" y1="0.49122807" x2="47.5" y2="47.5" stroke="var(--color-text-home-header-secondary-g5rqe4, #d5dbdb)" stroke-linecap="square"/><line x1="0.5" y1="0.49122807" x2="0.5" y2="47.5" stroke="var(--color-text-home-header-secondary-g5rqe4, #d5dbdb)" stroke-linecap="square"/><use href="#icon-service-glue"/></g><g class="text-lines" transform="translate(-114,-24.5)"><text transform="translate(0,17)" class="line1"><tspan xml:space="preserve" text-anchor="start">Glue: StartJobRun</tspan></text><text transform="translate(0,35.5)" class="line2 label"><tspan xml:space="preserve" text-anchor="start">G-2_1: weather_json_compact</tspan></text></g></g></g></g><g class="node-container" transform="translate(402,708)"><g class="sc-bWXABl pTcXL node state Task" data-testid="graph-A-2_1: create_weather_raw_table" data-state-id="A-2_1: create_weather_raw_table" data-state-type="Task"><g class="new-look-state-node "><rect x="-214" y="-24.5" width="428" height="49" rx="3" ry="3"/><g class="handle" transform="translate(-214,-24.5)"><path d="M5,16 L5,34 M8,16 L8,34"/></g><g class="icon" transform="translate(-198,-24)"><rect fill="var(--color-background-container-header-g9rg0j, #fafafa)" x="0.0361026108" y="0.0181291967" width="48" height="48"/><line x1="47.5" y1="0.49122807" x2="47.5" y2="47.5" stroke="var(--color-text-home-header-secondary-g5rqe4, #d5dbdb)" stroke-linecap="square"/><line x1="0.5" y1="0.49122807" x2="0.5" y2="47.5" stroke="var(--color-text-home-header-secondary-g5rqe4, #d5dbdb)" stroke-linecap="square"/><use href="#icon-service-athena"/></g><g class="text-lines" transform="translate(-142,-24.5)"><text transform="translate(0,17)" class="line1"><tspan xml:space="preserve" text-anchor="start">Athena: StartQueryExecution</tspan></text><text transform="translate(0,35.5)" class="line2 label"><tspan xml:space="preserve" text-anchor="start">A-2_1: create_weather_raw_table</tspan></text></g></g></g></g><g class="node-container" transform="translate(402,792)"><g class="sc-bWXABl pTcXL node state Task" data-testid="graph-A-2_2: MSCK repair iss_weather_raw_table" data-state-id="A-2_2: MSCK repair iss_weather_raw_table" data-state-type="Task"><g class="new-look-state-node "><rect x="-176" y="-24.5" width="352" height="49" rx="3" ry="3"/><g class="handle" transform="translate(-176,-24.5)"><path d="M5,16 L5,34 M8,16 L8,34"/></g><g class="icon" transform="translate(-160,-24)"><rect fill="var(--color-background-container-header-g9rg0j, #fafafa)" x="0.0361026108" y="0.0181291967" width="48" height="48"/><line x1="47.5" y1="0.49122807" x2="47.5" y2="47.5" stroke="var(--color-text-home-header-secondary-g5rqe4, #d5dbdb)" stroke-linecap="square"/><line x1="0.5" y1="0.49122807" x2="0.5" y2="47.5" stroke="var(--color-text-home-header-secondary-g5rqe4, #d5dbdb)" stroke-linecap="square"/><use href="#icon-service-athena"/></g><g class="text-lines" transform="translate(-104,-24.5)"><text transform="translate(0,17)" class="line1"><tspan xml:space="preserve" text-anchor="start">Athena: StartQueryExecution</tspan></text><text transform="translate(0,35.5)" class="line2 label"><tspan xml:space="preserve" text-anchor="start">A-2_2: MSCK repair iss_weather_raw_table</tspan></text></g></g></g></g><g class="node-container" transform="translate(402,876)"><g class="sc-bWXABl pTcXL node state Task" data-testid="graph-L-2_4: weather_data_tests" data-state-id="L-2_4: weather_data_tests" data-state-type="Task"><g class="new-look-state-node "><rect x="-122" y="-24.5" width="244" height="49" rx="3" ry="3"/><g class="handle" transform="translate(-122,-24.5)"><path d="M5,16 L5,34 M8,16 L8,34"/></g><g class="icon" transform="translate(-106,-24)"><rect fill="var(--color-background-container-header-g9rg0j, #fafafa)" x="0.0361026108" y="0.0181291967" width="48" height="48"/><line x1="47.5" y1="0.49122807" x2="47.5" y2="47.5" stroke="var(--color-text-home-header-secondary-g5rqe4, #d5dbdb)" stroke-linecap="square"/><line x1="0.5" y1="0.49122807" x2="0.5" y2="47.5" stroke="var(--color-text-home-header-secondary-g5rqe4, #d5dbdb)" stroke-linecap="square"/><use href="#icon-service-lam"/></g><g class="text-lines" transform="translate(-50,-24.5)"><text transform="translate(0,17)" class="line1"><tspan xml:space="preserve" text-anchor="start">Lambda: Invoke</tspan></text><text transform="translate(0,35.5)" class="line2 label"><tspan xml:space="preserve" text-anchor="start">L-2_4: weather_data_tests</tspan></text></g></g></g></g></g><g class="edges"><g class="sc-eFWqGp uNBBi edge"><path id="state-L-2_1: objects_in_s3:state-Has pipeline run today?:normal" d="M261,128L261,130.91666666666666C261,133.83333333333334,261,139.66666666666666,261,145.5C261,151.33333333333334,261,157.16666666666666,261,160.08333333333334L261,163" marker-end="url(#arrowhead)" fill="none"/></g><g class="sc-eFWqGp uNBBi edge"><path id="start:state-L-2_1: objects_in_s3" d="M261,44L261,46.916666666666664C261,49.833333333333336,261,55.666666666666664,261,61.5C261,67.33333333333333,261,73.16666666666667,261,76.08333333333333L261,79" marker-end="url(#arrowhead)" fill="none"/></g><g class="sc-eFWqGp uNBBi edge"><path id="state-Has pipeline run today?:state-Yes - raise error:choiceRule:0" d="M192.25373134328356,212L180.21144278606963,216.29166666666666C168.16915422885572,220.58333333333334,144.08457711442784,229.16666666666666,132.04228855721394,241.83333333333334C120,254.5,120,271.25,120,286.625C120,302,120,316,120,330C120,344,120,358,120,372C120,386,120,400,120,414C120,428,120,442,120,456C120,470,120,484,120,498C120,512,120,526,120,540C120,554,120,568,120,582C120,596,120,610,120,624C120,638,120,652,120,666C120,680,120,694,120,708C120,722,120,736,120,750C120,764,120,778,120,792C120,806,120,820,120,829.9166666666666C120,839.8333333333334,120,845.6666666666666,120,848.5833333333334L120,851.5" marker-end="url(#arrowhead)" fill="none"/><g data-testid="graph-Has pipeline run today?-0" class="edge-label" transform="translate(132.04228855721394,241.83333333333334)"><rect x="-42.5" y="-8.25" width="85" height="16.5" class="sc-fIavCj gvqvHU"/><text class="sc-duzrYq dwXdKt label"><tspan xml:space="preserve" text-anchor="middle" alignment-baseline="central">$.objects == 431</tspan><title>$.objects == 431</title></text></g></g><g class="sc-eFWqGp uNBBi edge"><path id="state-Has pipeline run today?:state-No - start pipeline:choiceRule:1" d="M329.74626865671644,212L341.78855721393035,216.29166666666666C353.8308457711443,220.58333333333334,377.9154228855721,229.16666666666666,389.9577114427861,237.75C402,246.33333333333334,402,254.91666666666666,402,259.2083333333333L402,263.5" marker-end="url(#arrowhead)" fill="none"/><g data-testid="graph-Has pipeline run today?-1" class="edge-label" transform="translate(389.9577114427861,237.75)"><rect x="-39.5" y="-8.25" width="79" height="16.5" class="sc-fIavCj gvqvHU"/><text class="sc-duzrYq dwXdKt label"><tspan xml:space="preserve" text-anchor="middle" alignment-baseline="central">$.objects &lt; 431</tspan><title>$.objects &lt; 431</title></text></g></g><g class="sc-eFWqGp uNBBi edge"><path id="state-Yes - raise error:end:normal" d="M120,900.5L120,903.4166666666666C120,906.3333333333334,120,912.1666666666666,139.96926199153867,920.6775592103955C159.93852398307737,929.1884517541245,199.87704796615472,940.376903508249,219.8463099576934,945.9711293853112L239.8155719492321,951.5653552623735" marker-end="url(#arrowhead)" fill="none"/></g><g class="sc-eFWqGp uNBBi edge"><path id="state-No - start pipeline:state-L-2_2: cities_to_sqs_passes:normal" d="M402,312.5L402,315.4166666666667C402,318.3333333333333,402,324.1666666666667,402,330C402,335.8333333333333,402,341.6666666666667,402,344.5833333333333L402,347.5" marker-end="url(#arrowhead)" fill="none"/></g><g class="sc-eFWqGp uNBBi edge"><path id="state-L-2_2: cities_to_sqs_passes:state-L-2_3: iss_weather_queue:normal" d="M402,396.5L402,399.4166666666667C402,402.3333333333333,402,408.1666666666667,402,414C402,419.8333333333333,402,425.6666666666667,402,428.5833333333333L402,431.5" marker-end="url(#arrowhead)" fill="none"/></g><g class="sc-eFWqGp uNBBi edge"><path id="state-L-2_3: iss_weather_queue:state-Wait for all messages to be processed:normal" d="M402,480.5L402,483.4166666666667C402,486.3333333333333,402,492.1666666666667,402,498C402,503.8333333333333,402,509.6666666666667,402,512.5833333333334L402,515.5" marker-end="url(#arrowhead)" fill="none"/></g><g class="sc-eFWqGp uNBBi edge"><path id="state-Wait for all messages to be processed:state-G-2_1: weather_json_compact:normal" d="M402,564.5L402,567.4166666666666C402,570.3333333333334,402,576.1666666666666,402,582C402,587.8333333333334,402,593.6666666666666,402,596.5833333333334L402,599.5" marker-end="url(#arrowhead)" fill="none"/></g><g class="sc-eFWqGp uNBBi edge"><path id="state-G-2_1: weather_json_compact:state-A-2_1: create_weather_raw_table:normal" d="M402,648.5L402,651.4166666666666C402,654.3333333333334,402,660.1666666666666,402,666C402,671.8333333333334,402,677.6666666666666,402,680.5833333333334L402,683.5" marker-end="url(#arrowhead)" fill="none"/></g><g class="sc-eFWqGp uNBBi edge"><path id="state-A-2_1: create_weather_raw_table:state-A-2_2: MSCK repair iss_weather_raw_table:normal" d="M402,732.5L402,735.4166666666666C402,738.3333333333334,402,744.1666666666666,402,750C402,755.8333333333334,402,761.6666666666666,402,764.5833333333334L402,767.5" marker-end="url(#arrowhead)" fill="none"/></g><g class="sc-eFWqGp uNBBi edge"><path id="state-A-2_2: MSCK repair iss_weather_raw_table:state-L-2_4: weather_data_tests:normal" d="M402,816.5L402,819.4166666666666C402,822.3333333333334,402,828.1666666666666,402,834C402,839.8333333333334,402,845.6666666666666,402,848.5833333333334L402,851.5" marker-end="url(#arrowhead)" fill="none"/></g><g class="sc-eFWqGp uNBBi edge"><path id="state-L-2_4: weather_data_tests:end:normal" d="M402,900.5L402,903.4166666666666C402,906.3333333333334,402,912.1666666666666,382.03073800846136,920.6775592103955C362.06147601692265,929.1884517541245,322.12295203384525,940.376903508249,302.1536900423066,945.9711293853112L282.1844280507679,951.5653552623735" marker-end="url(#arrowhead)" fill="none"/></g></g><defs><marker id="arrowhead" markerWidth="8" markerHeight="6" refX="7" refY="3" orient="auto" class="sc-dFdIVH hTqHhA"><polygon points="0 0, 8 3, 0 6"/></marker><marker id="highlighted-arrowhead" markerWidth="6" markerHeight="4" refX="5" refY="2" orient="auto" class="sc-dFdIVH hTqHhA"><polygon points="0 0, 6 2, 0 4"/></marker><marker id="error-arrowhead" markerWidth="6" markerHeight="4" refX="5" refY="2" orient="auto" class="sc-dFdIVH hTqHhA"><polygon points="0 0, 6 2, 0 4"/></marker><marker id="large-arrowhead" markerWidth="10" markerHeight="8" refX="9" refY="4" orient="auto" class="sc-dFdIVH hTqHhA"><polygon points="0 0, 10 4, 0 8"/></marker><marker id="large-highlighted-arrowhead" markerWidth="5.5" markerHeight="4" refX="4.5" refY="2" orient="auto" class="sc-dFdIVH hTqHhA"><polygon points="0 0, 5.5 2, 0 4"/></marker><marker id="large-error-arrowhead" markerWidth="10" markerHeight="8" refX="9" refY="4" orient="auto" class="sc-dFdIVH hTqHhA"><polygon points="0 0, 10 4, 0 8"/></marker><linearGradient x1="0%" y1="100%" x2="100%" y2="0%" id="gradient-orange"><stop stop-color="#C8511B" offset="0%"/><stop stop-color="#FF9900" offset="100%"/></linearGradient><linearGradient x1="0%" y1="100%" x2="100%" y2="0%" id="gradient-turquoise"><stop stop-color="#055F4E" offset="0%"/><stop stop-color="#56C0A7" offset="100%"/></linearGradient><linearGradient x1="0%" y1="100%" x2="100%" y2="0%" id="gradient-blue"><stop stop-color="#2E27AD" offset="0%"/><stop stop-color="#527FFF" offset="100%"/></linearGradient><linearGradient x1="0%" y1="100%" x2="100%" y2="0%" id="gradient-pink"><stop stop-color="#B0084D" offset="0%"/><stop stop-color="#FF4F8B" offset="100%"/></linearGradient><linearGradient x1="0%" y1="100%" x2="100%" y2="0%" id="gradient-red"><stop stop-color="#BD0816" offset="0%"/><stop stop-color="#FF5252" offset="100%"/></linearGradient><linearGradient x1="0%" y1="100%" x2="100%" y2="0%" id="gradient-green"><stop stop-color="#1B660F" offset="0%"/><stop stop-color="#6CAE3E" offset="100%"/></linearGradient><linearGradient x1="0%" y1="100%" x2="100%" y2="0%" id="gradient-purple"><stop stop-color="#4D27A8" offset="0%"/><stop stop-color="#A166FF" offset="100%"/></linearGradient><linearGradient x1="0%" y1="100%" x2="100%" y2="0%" id="gradient-grey"><stop stop-color="#DCDCDC" offset="0%"/><stop stop-color="#F6F5F7" offset="100%"/></linearGradient>,<linearGradient x1="0%" y1="100%" x2="100%" y2="0%" id="gradient-ag"><stop stop-color="#BC1356" offset="0%"/><stop stop-color="#F34482" offset="100%"/></linearGradient><linearGradient x1="0%" y1="100%" x2="100%" y2="0%" id="gradient-athena"><stop stop-color="#5930B5" offset="0%"/><stop stop-color="#945DF2" offset="100%"/></linearGradient><linearGradient x1="0%" y1="100%" x2="100%" y2="0%" id="gradient-emr"><stop stop-color="#5930B5" offset="0%"/><stop stop-color="#945DF2" offset="100%"/></linearGradient><linearGradient x1="0%" y1="100%" x2="100%" y2="0%" id="gradient-glue"><stop stop-color="#5930B5" offset="0%"/><stop stop-color="#945DF2" offset="100%"/></linearGradient><linearGradient x1="0%" y1="100%" x2="100%" y2="0%" id="gradient-sns"><stop stop-color="#BC1356" offset="0%"/><stop stop-color="#F34482" offset="100%"/></linearGradient><linearGradient x1="0%" y1="100%" x2="100%" y2="0%" id="gradient-states"><stop stop-color="#BC1356" offset="0%"/><stop stop-color="#F34482" offset="100%"/></linearGradient><linearGradient x1="0%" y1="100%" x2="100%" y2="0%" id="gradient-generic"><stop stop-color="#ccc" offset="0%"/><stop stop-color="#ddd" offset="100%"/></linearGradient><g stroke="none" stroke-width="1" fill="none" fill-rule="evenodd" id="icon-flow-pass"><g transform="translate(10.500000, 8.750000)" fill="#0073BB" fill-rule="nonzero"><path d="M13.8217363,31.2803301 L13.7368454,31.3532508 L13.7368454,31.3532508 L13.6534426,31.407053 L13.6534426,31.407053 L13.6052878,31.4313839 L13.6052878,31.4313839 L13.5081671,31.4681458 L13.5081671,31.4681458 L13.4513711,31.4828395 L13.4513711,31.4828395 L13.3846755,31.4942127 L13.3846755,31.4942127 L13.3412428,31.498357 L13.3412428,31.498357 L13.241495,31.498357 L13.241495,31.498357 L13.1802045,31.4917588 L13.1802045,31.4917588 L13.1314644,31.4828361 L13.1314644,31.4828361 L13.0652921,31.4652652 L12.9776235,31.4314294 L12.9776235,31.4314294 L12.9293782,31.4070608 L12.9293782,31.4070608 L12.8294824,31.3409596 L12.7610762,31.2803301 L12.7610762,31.2803301 L8.26107616,26.7803301 C7.96818295,26.4874369 7.96818295,26.0125631 8.26107616,25.7196699 C8.52734273,25.4534034 8.94400641,25.4291973 9.2376179,25.6470518 L9.32173634,25.7196699 L12.5814063,28.979 L12.581,19.7495522 L3.5,19.75 C1.6314366,19.75 0.104873551,18.2857224 0.00517886273,16.4420352 L0,16.25 L0,12.25 C0,10.3814366 1.4642776,8.85487355 3.3079648,8.75517886 L3.5,8.75 L11.686,8.74955216 L11.686,10.2495522 L3.5,10.25 C2.4456382,10.25 1.58183488,11.0658778 1.50548574,12.1007377 L1.5,12.25 L1.5,16.25 C1.5,17.3043618 2.31587779,18.1681651 3.35073766,18.2445143 L3.5,18.25 L22.5,18.25 C23.5543618,18.25 24.4181651,17.4341222 24.4945143,16.3992623 L24.5,16.25 L24.5,12.25 C24.5,11.1956382 23.6841222,10.3318349 22.6492623,10.2554857 L22.5,10.25 L15.686,10.2495522 L15.686,8.74955216 L22.5,8.75 C24.3685634,8.75 25.8951264,10.2142776 25.9948211,12.0579648 L26,12.25 L26,16.25 C26,18.1185634 24.5357224,19.6451264 22.6920352,19.7448211 L22.5,19.75 L14.081,19.7495522 L14.0814063,28.899 L17.2610762,25.7196699 L17.3451946,25.6470518 C17.6388061,25.4291973 18.0554698,25.4534034 18.3217363,25.7196699 C18.5880029,25.9859365 18.6122089,26.4026002 18.3943545,26.6962117 L18.3217363,26.7803301 L13.8217363,31.2803301 Z"/><polygon points="14.0818291 0 14.0818291 14.5 12.5818291 14.5 12.5818291 0"/></g></g><g stroke="none" stroke-width="1" fill="none" fill-rule="evenodd" id="icon-flow-wait"><path d="M26.75,8.85825893 L26.75,10.3582589 L25,10.3582589 L25.0010332,13.2887186 C27.2395643,13.4625704 29.3159269,14.2145278 31.0809903,15.3954598 L32.3188424,13.6912711 L34.7458934,15.4546269 L33.3682881,17.3513419 C35.4674483,19.6240431 36.75,22.6622436 36.75,26 C36.75,33.0416306 31.0416306,38.75 24,38.75 C16.9583694,38.75 11.25,33.0416306 11.25,26 C11.25,22.7657627 12.4542298,19.8127884 14.4387685,17.5649977 L12.9047966,15.4546269 L15.3318476,13.6912711 L16.6858812,15.555197 C18.2387522,14.4657629 20.0456704,13.7138336 22.0001068,13.4059384 L22,10.3582589 L20.25,10.3582589 L20.25,8.85825893 L26.75,8.85825893 Z M24,14.75 C17.7867966,14.75 12.75,19.7867966 12.75,26 C12.75,32.2132034 17.7867966,37.25 24,37.25 C30.2132034,37.25 35.25,32.2132034 35.25,26 C35.25,19.7867966 30.2132034,14.75 24,14.75 Z M24.4666648,19.3452148 L24.466,26.499 L30.9387207,26.4993034 L30.9387207,27.9993034 L23.7166648,27.9993034 C23.336969,27.9993034 23.0231738,27.7171495 22.9735114,27.3510739 L22.9666648,27.2493034 L22.9666648,19.3452148 L24.4666648,19.3452148 Z" fill="#0073BB" fill-rule="nonzero"/></g><g stroke="none" stroke-width="1" fill="none" fill-rule="evenodd" id="icon-flow-choice"><g transform="translate(9.252020, 8.729185)" fill="#0073BB" fill-rule="nonzero"><path d="M13.7176503,0.219669914 C13.9839168,-0.0465966484 14.4005805,-0.0708026996 14.694192,0.147051761 L14.7783104,0.219669914 L26.7991257,12.2404852 C27.0653923,12.5067518 27.0895983,12.9234154 26.8717439,13.2170269 L26.7991257,13.3011454 L19.848,20.251 L27.063,27.58 L27.0635443,24.4725437 C27.0635443,24.0583302 27.3993308,23.7225437 27.8135443,23.7225437 C28.1901021,23.7225437 28.5018441,24.0000532 28.5554124,24.3617142 L28.5635443,24.4725437 L28.5635443,29.4222912 C28.5635443,29.4735748 28.5583971,29.5236562 28.5485912,29.5720469 L28.5290567,29.6477745 L28.4912259,29.7440224 L28.4674556,29.7898473 L28.4399848,29.8348433 L28.3922808,29.8993609 L28.3266417,29.9693147 L28.2903734,30.0012261 L28.2103598,30.0588356 L28.1372883,30.0990133 L28.0408973,30.1372113 L27.9243738,30.1641593 C27.8841362,30.1698129 27.8491297,30.1722912 27.8135443,30.1722912 L22.8637969,30.1722912 C22.4495833,30.1722912 22.1137969,29.8365048 22.1137969,29.4222912 C22.1137969,29.0457334 22.3913063,28.7339914 22.7529674,28.6804231 L22.8637969,28.6722912 L26.032,28.672 L18.787,21.312 L14.7783104,25.3219606 C14.5120439,25.5882272 14.0953802,25.6124333 13.8017687,25.3945788 L13.7176503,25.3219606 L9.63,21.234 L2.386,28.671 L5.69974747,28.6722912 L5.81057697,28.6804231 C6.17223802,28.7339914 6.44974747,29.0457334 6.44974747,29.4222912 C6.44974747,29.801987 6.16759359,30.1157822 5.80151803,30.1654446 L5.69974747,30.1722912 L0.75,30.1722912 L0.645175107,30.1650238 L0.571316134,30.150876 L0.491748953,30.1266437 L0.399838514,30.0857012 L0.323957521,30.0396165 L0.243169757,29.975129 L0.170912131,29.8989347 L0.109961584,29.8134582 L0.0656949991,29.7297074 L0.0297396696,29.6320944 L0.0076057584,29.5294944 L6.67910172e-13,29.4222912 L6.67910172e-13,24.4725437 L0.00813192572,24.3617142 C0.0617002376,24.0000532 0.373442216,23.7225437 0.75,23.7225437 C1.12969577,23.7225437 1.44349096,24.0046976 1.49315338,24.3707732 L1.5,24.4725437 L1.499,27.433 L8.569,20.174 L1.69683498,13.3011454 C1.43056842,13.0348788 1.40636237,12.6182151 1.62421683,12.3246036 L1.69683498,12.2404852 L13.7176503,0.219669914 Z M14.3527697,23.728356 L25.2081355,12.7708153 L14.2479803,1.81066017 L3.28782524,12.7708153 L9.616,19.099 L14.3527697,23.728356 Z"/><path d="M15.2319803,14.0468153 L15.2319803,13.2668153 C16.0033137,12.8508153 16.5579803,12.4218153 16.8959803,11.9798153 C17.2339803,11.5378153 17.4029803,11.0178153 17.4029803,10.4198153 C17.4029803,9.65714861 17.151647,9.06131528 16.6489803,8.63231528 C16.1463137,8.20331528 15.448647,7.98881528 14.5559803,7.98881528 C13.6979803,7.98881528 12.874647,8.19248195 12.0859803,8.59981528 L12.0859803,8.59981528 L12.0859803,10.3288153 C12.8313137,9.98214861 13.4943137,9.80881528 14.0749803,9.80881528 C14.395647,9.80881528 14.6404803,9.87814861 14.8094803,10.0168153 C14.9784803,10.1554819 15.0629803,10.3591486 15.0629803,10.6278153 C15.0629803,10.9138153 14.9763137,11.1651486 14.8029803,11.3818153 C14.629647,11.5984819 14.343647,11.8151486 13.9449803,12.0318153 L13.9449803,12.0318153 L13.1909803,12.4348153 L13.3339803,14.0468153 L15.2319803,14.0468153 Z M14.3089803,17.4398153 C14.7249803,17.4398153 15.0608137,17.3141486 15.3164803,17.0628153 C15.572147,16.8114819 15.6999803,16.4821486 15.6999803,16.0748153 C15.6999803,15.6674819 15.572147,15.3381486 15.3164803,15.0868153 C15.0608137,14.8354819 14.7249803,14.7098153 14.3089803,14.7098153 C13.8929803,14.7098153 13.557147,14.8354819 13.3014803,15.0868153 C13.0458137,15.3381486 12.9179803,15.6674819 12.9179803,16.0748153 C12.9179803,16.4821486 13.0458137,16.8114819 13.3014803,17.0628153 C13.557147,17.3141486 13.8929803,17.4398153 14.3089803,17.4398153 Z"/></g></g><g stroke="none" stroke-width="1" fill="none" fill-rule="evenodd" id="icon-flow-fail"><g transform="translate(11.250000, 12.250000)" fill="#D13212" fill-rule="nonzero"><path d="M12.75,0 C5.70836944,0 0,5.70836944 0,12.75 C0,19.7916306 5.70836944,25.5 12.75,25.5 C19.7916306,25.5 25.5,19.7916306 25.5,12.75 C25.5,5.70836944 19.7916306,0 12.75,0 Z M12.75,1.5 C18.9632034,1.5 24,6.53679656 24,12.75 C24,18.9632034 18.9632034,24 12.75,24 C6.53679656,24 1.5,18.9632034 1.5,12.75 C1.5,6.53679656 6.53679656,1.5 12.75,1.5 Z"/><path d="M16.5831403,8.21116377 C16.8767518,7.99330931 17.2934155,8.01751536 17.559682,8.28378193 C17.8259486,8.55004849 17.8501547,8.96671217 17.6323002,9.26032366 L17.559682,9.3444421 L13.622464,13.282112 L17.559682,17.2196699 C17.8525753,17.5125631 17.8525753,17.9874369 17.559682,18.2803301 C17.2934155,18.5465966 16.8767518,18.5708027 16.5831403,18.3529482 L16.4990219,18.2803301 L12.561464,14.343112 L8.62379406,18.2803301 L8.53967563,18.3529482 C8.24606413,18.5708027 7.82940045,18.5465966 7.56313389,18.2803301 C7.29686733,18.0140635 7.27266128,17.5973998 7.49051574,17.3037883 L7.56313389,17.2196699 L11.500464,13.282112 L7.56313389,9.3444421 C7.27024067,9.05154888 7.27024067,8.57667514 7.56313389,8.28378193 C7.82940045,8.01751536 8.24606413,7.99330931 8.53967563,8.21116377 L8.62379406,8.28378193 L12.561464,12.221112 L16.4990219,8.28378193 L16.5831403,8.21116377 Z"/></g></g><g stroke="none" stroke-width="1" fill="none" fill-rule="evenodd" id="icon-service-athena"><polygon fill="url(#gradient-athena)" fill-rule="nonzero" points="0 0 48 0 48 48 0 48"/><g transform="translate(8.571429, 8.571429)" fill="#FFFFFF"><path d="M29.7196639,25.6658824 L26.9485714,22.8766387 C29.917052,18.422567 30.1945049,12.6966034 27.6705663,7.97639531 C25.1466276,3.25618721 20.2306095,0.307220264 14.8779832,0.302521008 C9.30647215,0.332461013 4.23817971,3.53212873 1.81512605,8.5492437 L2.90420168,9.06957983 C5.59326844,3.47261621 11.7949278,0.478447704 17.850165,1.85365099 C23.9054022,3.22885428 28.2053894,8.60804888 28.2131092,14.817479 C28.2200348,17.3654662 27.4864287,19.8605678 26.1015126,21.9993277 L23.8084034,19.7001681 C25.4337348,16.3959855 25.1069659,12.4651834 22.9583593,9.47472959 C20.8097526,6.4842758 17.1886625,4.92040554 13.5385939,5.40653729 C9.88852539,5.89266904 6.8029641,8.34975983 5.51193277,11.7983193 L1.51260504,11.7983193 L1.51260504,13.0084034 L5.17310924,13.0084034 C5.03983188,13.6047593 4.96485726,14.2126616 4.9492437,14.8235294 L0.302521008,14.8235294 L0.302521008,16.0336134 L4.99159664,16.0336134 C5.03992837,16.6484732 5.15144075,17.2567226 5.32436975,17.8487395 L1.57915966,17.8487395 L1.57915966,19.0588235 L5.76,19.0588235 C6.87116275,21.6538322 9.03140223,23.6553702 11.703496,24.5656819 C14.3755898,25.4759937 17.3084716,25.2095475 19.7727731,23.832605 L21.9932773,26.0531092 C15.8821492,29.9209531 7.80080095,28.2015173 3.79361345,22.1808403 L2.7892437,22.852437 C7.21893213,29.5082802 16.1955958,31.3312001 22.8705882,26.9304202 L25.6598319,29.7196639 C26.7792528,30.8407555 28.595547,30.8421099 29.7166387,29.7226891 C30.8377303,28.6032682 30.8390847,26.786974 29.7196639,25.6658824 L29.7196639,25.6658824 Z M14.9203361,23.8870588 C11.3738414,23.8870588 8.17667154,21.7503774 6.82005269,18.4736092 C5.46343384,15.196841 6.21461579,11.4254984 8.72323173,8.91861374 C11.2318477,6.41172907 15.0037079,5.66315092 18.2795388,7.02203162 C21.5553697,8.38091233 23.6898425,11.5795566 23.6873971,15.1260504 C23.6773993,19.9628367 19.7571281,23.8804023 14.9203361,23.8870588 Z M28.8363025,28.8544538 C28.1846829,29.4829918 27.1524599,29.4829918 26.5008403,28.8544538 L20.8013445,23.154958 C21.7056228,22.4856952 22.489271,21.6672636 23.1186555,20.7347899 L28.8423529,26.4887395 C29.1534604,26.797693 29.3284209,27.2180187 29.3284209,27.6564706 C29.3284209,28.0949225 29.1534604,28.5152482 28.8423529,28.8242017 L28.8363025,28.8544538 Z"/><path d="M20.4988235,16.0033613 C20.2418767,15.4617095 19.8502249,14.9950606 19.3613445,14.6480672 L19.7606723,11.7015126 L19.7606723,11.7015126 L19.7606723,11.7015126 L19.7606723,11.6228571 L19.7606723,11.5381513 C19.7606723,11.5078992 19.7606723,11.4776471 19.7606723,11.4534454 C19.7606723,10.0194958 16.6023529,9.48705882 14.6117647,9.48705882 C12.6211765,9.48705882 9.46890756,10.0194958 9.46890756,11.4534454 C9.466117,11.4816117 9.466117,11.5099849 9.46890756,11.5381513 L9.46890756,11.6228571 C9.46555231,11.6489683 9.46555231,11.6754015 9.46890756,11.7015126 C9.46890756,11.7015126 9.46890756,11.7015126 9.46890756,11.7015126 L9.46890756,11.7015126 L10.4793277,19.2342857 C10.5579832,20.7347899 14.1761345,20.7771429 14.5936134,20.7771429 C15.3785922,20.781778 16.1617273,20.7006241 16.9290756,20.5351261 C17.1840277,20.4753806 17.4346765,20.3985689 17.6793277,20.3052101 C18.3388235,20.045042 18.6836975,19.7001681 18.7078992,19.2342857 L19.022521,16.8806723 C19.2213563,16.9237278 19.424123,16.9460322 19.627563,16.9472269 C19.9380884,16.9920151 20.2446552,16.8435218 20.4020168,16.5721008 C20.5128561,16.4045805 20.5479986,16.1981182 20.4988235,16.0033613 L20.4988235,16.0033613 Z M18.0423529,15.307563 C17.2678992,15.0110924 16.330084,14.6057143 15.4406723,14.1761345 C15.2988418,13.7586743 14.8657833,13.514632 14.4352221,13.6095312 C14.0046608,13.7044304 13.7143225,14.1079152 13.7611314,14.5463189 C13.8079404,14.9847226 14.1769235,15.3178108 14.6178151,15.3196639 C14.7172195,15.3203195 14.8158205,15.3018318 14.9082353,15.2652101 C15.8741004,15.7471765 16.8658649,16.1753925 17.8789916,16.5478992 L17.5462185,19.0406723 C17.4589396,19.0973179 17.365583,19.1439962 17.2678992,19.1798319 C17.070771,19.2530072 16.8685497,19.3116514 16.6628571,19.3552941 C15.9870854,19.501748 15.2971502,19.5727708 14.6057143,19.5670588 C13.6056118,19.625567 12.6059498,19.4451301 11.6894118,19.0406723 L10.8423529,12.7421849 C13.3086435,13.4117282 15.9088355,13.4117282 18.3751261,12.7421849 L18.0423529,15.307563 Z M14.6178151,12.0342857 C13.3190489,12.0985328 12.0210849,11.8925068 10.8060504,11.4292437 C12.0004113,10.8847974 13.3063767,10.6298232 14.6178151,10.685042 C15.9292535,10.6298232 17.2352189,10.8847974 18.4295798,11.4292437 C17.2147282,11.8931913 15.9166195,12.0992403 14.6178151,12.0342857 L14.6178151,12.0342857 Z"/></g></g><g stroke="none" stroke-width="1" fill="none" fill-rule="evenodd" id="icon-service-glue"><rect fill="#FFFFFF" x="0" y="0" width="48" height="48"/><polygon fill="url(#gradient-glue)" fill-rule="nonzero" points="0 0 48 0 48 48 0 48"/><g transform="translate(12.857143, 6.857143)" fill="#FFFFFF"><path d="M11.4110924,34.7983206 C11.2500884,34.7986339 11.094057,34.7425601 10.970084,34.6398319 L6.79428571,31.1944538 C6.57103391,31.0085632 6.48834756,30.7026237 6.58756303,30.4295798 C6.68620434,30.1567421 6.94517255,29.9749134 7.23529412,29.9747899 L9.30252101,29.9747899 L9.30252101,27.907563 L10.6806723,27.907563 L10.6806723,30.6638655 C10.6806723,31.0444315 10.3721626,31.3529412 9.99159664,31.3529412 L9.15092437,31.3529412 L11.4042017,33.2134454 L13.6161345,31.3529412 L12.7478992,31.3529412 C12.3673332,31.3529412 12.0588235,31.0444315 12.0588235,30.6638655 L12.0588235,27.907563 L13.4369748,27.907563 L13.4369748,29.9747899 L15.5042017,29.9747899 C15.7914588,29.9776242 16.046819,30.1583697 16.1449919,30.4283452 C16.2431648,30.6983206 16.1635501,31.0008753 15.9452101,31.187563 L11.8521008,34.6329412 C11.7290858,34.7381552 11.5729568,34.7967036 11.4110924,34.7983206 Z"/><path d="M17.5507563,8.95798319 L17.3853782,10.3361345 C18.5201274,10.4194541 19.6390655,10.6511183 20.7136134,11.0252101 C19.4939496,11.5557983 16.0554622,12.0588235 11.3697479,12.0588235 C6.54621849,12.0588235 3.10084034,11.507563 2.00521008,11.0252101 C2.99747899,10.6048739 5.8502521,10.0398319 10.6806723,9.99159664 L10.6806723,8.61344538 C1.30235294,8.70991597 0.344537815,10.3292437 0.344537815,11.0252101 C0.341471846,11.0710973 0.341471846,11.117138 0.344537815,11.1630252 C0.358539329,11.2474457 0.386483587,11.3289498 0.427226891,11.4042017 L0.565042017,11.6453782 C0.595496695,11.7002023 0.632520414,11.7511099 0.675294118,11.7969748 C0.745398056,11.8656425 0.821499136,11.927907 0.902689076,11.9830252 L8.61344538,24.007395 L8.61344538,25.8472269 C8.61250869,26.1355861 8.79122213,26.3940332 9.06134454,26.494958 C9.81457775,26.7803536 10.6125198,26.9296761 11.4179832,26.9359664 C12.1983242,26.9336377 12.9707224,26.7791581 13.6919328,26.4811765 C13.9519555,26.377632 14.123518,26.1270963 14.1260504,25.8472269 L14.1260504,24.0005042 L21.8023529,11.989916 L21.8023529,11.989916 C22.1543874,11.7934672 22.378872,11.4280272 22.394958,11.0252101 C22.394958,10.2878992 21.8230252,9.46789916 17.5507563,8.95798319 Z M12.8581513,23.4285714 C12.78651,23.5394806 12.7482413,23.6686374 12.7478992,23.8006723 L12.7478992,25.3579832 C11.8502992,25.6368957 10.8891966,25.6368957 9.99159664,25.3579832 L9.99159664,23.8006723 C9.99125446,23.6686374 9.95298578,23.5394806 9.88134454,23.4285714 L3.03882353,12.7410084 C5.78684404,13.2406038 8.57698824,13.4713849 11.3697479,13.430084 C14.1577073,13.4646521 16.9426332,13.2339209 19.6868908,12.7410084 L12.8581513,23.4285714 Z"/><path d="M15.5042017,10.6806723 L12.7478992,10.6806723 C12.3673332,10.6806723 12.0588235,10.3721626 12.0588235,9.99159664 L12.0588235,7.23529412 C12.0588235,6.85472816 12.3673332,6.54621849 12.7478992,6.54621849 L15.5042017,6.54621849 C15.8847676,6.54621849 16.1932773,6.85472816 16.1932773,7.23529412 L16.1932773,9.99159664 C16.1932773,10.3721626 15.8847676,10.6806723 15.5042017,10.6806723 Z M13.4369748,9.30252101 L14.8151261,9.30252101 L14.8151261,7.92436975 L13.4369748,7.92436975 L13.4369748,9.30252101 Z"/><path d="M14.1260504,4.4789916 L11.3697479,4.4789916 C10.9891819,4.4789916 10.6806723,4.17048193 10.6806723,3.78991597 L10.6806723,1.03361345 C10.6806723,0.653047483 10.9891819,0.344537815 11.3697479,0.344537815 L14.1260504,0.344537815 C14.5066164,0.344537815 14.8151261,0.653047483 14.8151261,1.03361345 L14.8151261,3.78991597 C14.8151261,4.17048193 14.5066164,4.4789916 14.1260504,4.4789916 Z M12.0588235,3.10084034 L13.4369748,3.10084034 L13.4369748,1.72268908 L12.0588235,1.72268908 L12.0588235,3.10084034 Z"/><path d="M8.61344538,7.92436975 L5.85714286,7.92436975 C5.4765769,7.92436975 5.16806723,7.61586008 5.16806723,7.23529412 L5.16806723,4.4789916 C5.16806723,4.09842563 5.4765769,3.78991597 5.85714286,3.78991597 L8.61344538,3.78991597 C8.99401134,3.78991597 9.30252101,4.09842563 9.30252101,4.4789916 L9.30252101,7.23529412 C9.30252101,7.61586008 8.99401134,7.92436975 8.61344538,7.92436975 Z M6.54621849,6.54621849 L7.92436975,6.54621849 L7.92436975,5.16806723 L6.54621849,5.16806723 L6.54621849,6.54621849 Z"/></g></g><g stroke="none" stroke-width="1" fill="none" fill-rule="evenodd" id="icon-service-lam"><polygon fill="url(#gradient-orange)" fill-rule="nonzero" points="0 0 48 0 48 48 0 48"/><g transform="translate(11, 10)" fill="#FFFFFF"><path d="M26.5889213,27.8937088 L19.6925948,27.8937088 C19.4772752,27.8931074 19.2813916,27.7706914 19.1888047,27.578869 L9.43766764,7.45673404 L5.31218659,7.45673404 C5.00303594,7.45673404 4.75241983,7.20943823 4.75241983,6.90438337 L4.75241983,0.828526005 C4.75241983,0.523471153 5.00303594,0.276175335 5.31218659,0.276175335 L13.9325948,0.276175335 C14.1479143,0.276776788 14.3437979,0.399192787 14.4363848,0.591015217 L24.1427405,20.7131501 L26.5889213,20.7131501 C26.8980719,20.7131501 27.148688,20.9604459 27.148688,21.2655008 L27.148688,27.3413582 C27.148688,27.646413 26.8980719,27.8937088 26.5889213,27.8937088 Z M20.0452478,26.7890075 L26.0291545,26.7890075 L26.0291545,21.8178515 L23.7900875,21.8178515 C23.5747679,21.81725 23.3788843,21.694834 23.2862974,21.5030116 L13.5799417,1.38087667 L5.87755102,1.38087667 L5.87755102,6.3520327 L9.79591837,6.3520327 C10.0112379,6.35263416 10.2071215,6.47505016 10.2997085,6.66687259 L20.0452478,26.7890075 Z"/><path d="M8.10542274,27.8937099 L0.82845481,27.8937099 C0.635054571,27.8940907 0.455155006,27.7959347 0.352653061,27.634104 C0.243858391,27.4681848 0.233185428,27.2575536 0.324664723,27.0817533 L7.93749271,11.3894708 C8.03007964,11.1976484 8.22596323,11.0752324 8.4412828,11.0746298 L8.4412828,11.0746298 C8.65533487,11.0742082 8.85089022,11.1942751 8.94507289,11.3839473 L12.5891545,18.7799228 C12.6634688,18.931712 12.6634688,19.1086786 12.5891545,19.2604679 L8.6148105,27.5457279 C8.53147526,27.7523199 8.33072312,27.8894609 8.10542274,27.8937099 L8.10542274,27.8937099 Z M1.72408163,26.7890075 L7.75276968,26.7890075 L11.4640233,19.0560981 L8.44688047,12.8973881 L1.72408163,26.7890075 Z"/></g></g></defs></g><style data-styled="true" data-styled-version="5.3.5">.pTcXL{cursor:pointer;}/*!sc*/data-styled.g89[id="sc-bWXABl"]{content:"pTcXL,"}/*!sc*/.uNBBi{stroke:#555;background-color:#555;stroke-width:1px;}/*!sc*/data-styled.g90[id="sc-eFWqGp"]{content:"uNBBi,"}/*!sc*/.hTqHhA{fill:var(--color-text-form-secondary-1c3szk,#687078);}/*!sc*/data-styled.g92[id="sc-dFdIVH"]{content:"hTqHhA,"}/*!sc*/.iUlozD{font-weight:400;font-size:12px;line-height:16px;font-family:Amazon Ember,Arial,Roboto,Arial,sans-serif;text-shadow:none;fill:var(--color-text-body-default-7m2b3r,#16191f);}/*!sc*/data-styled.g93[id="sc-brCFrO"]{content:"iUlozD,"}/*!sc*/.dOOrib{fill:#fff9cc;stroke:var(--color-text-form-secondary-1c3szk,#687078);stroke-width:0.6px;}/*!sc*/data-styled.g94[id="sc-gITdmR"]{content:"dOOrib,"}/*!sc*/.gvqvHU{stroke-width:0;stroke:none;fill:#f2f3f3;}/*!sc*/data-styled.g96[id="sc-fIavCj"]{content:"gvqvHU,"}/*!sc*/.dwXdKt{font-size:10px;line-height:12.5;stroke:none;}/*!sc*/data-styled.g97[id="sc-duzrYq"]{content:"dwXdKt,"}/*!sc*/</style><style>.new-look-state-node &gt; rect:first-of-type {  stroke: #687078;  stroke-width: 1px;  fill: #FFFFFF;}.new-look-state-node .error-icon circle { stroke-linejoin: round;}.new-look-state-node .error-icon circle, .new-look-state-node .error-icon path { stroke: var(--color-border-status-error-fybu9w, #d13212); fill: none; stroke-width: 2px;}.new-look-state-node.has-errors &gt; rect:first-of-type { stroke: var(--color-border-status-error-fybu9w, #d13212); fill: var(--color-background-status-error-h1a0iq, #fdf3f1);}.new-look-state-node .handle path {  stroke: var(--color-border-dropdown-item-hover-d32f3f, #879596);  stroke-width: 1px;  fill: none;}.new-look-state-node {  font-weight: 400;  font-family: Amazon Ember, Arial, Roboto, Arial, sans-serif;  text-shadow: none;}.new-look-state-node .line1 {  fill: #687078;  font-size: 12px;}.selected.node &gt; .new-look-state-node &gt; rect,.selected.node &gt; .new-look-state-node &gt; .new-look-state-node &gt; rect,.selected.node &gt; .new-look-state-node &gt; .bounding-box &gt; .new-look-state-node-sub &gt; rect {  stroke: var(--color-border-status-info-0iedcr, #0073bb);  fill: var(--color-background-status-info-yq3r41, #f1faff);  stroke-width: 1px;}.new-look-state-node-sub .item-source.not-specified {  height: 15px;  color: #687078;  font-family: "Amazon Ember";  font-size: 12px;  letter-spacing: 0;  line-height: 16px;  font-weight: 400;}.new-look-state-node-sub .item-source .item-source_name{  font-weight: 600;}.new-look-state-node-sub .item-source.not-specified .item-source_name{  font-weight: 400;}.new-look-state-node-sub .item-source.not-specified {  font-style: italic;}.new-look-state-node-sub .item-source.selected.node &gt; .new-look-state-node.has-errors &gt; rect,.selected.node &gt; .new-look-state-node.has-errors &gt; .new-look-state-node &gt; rect,{ stroke: var(--color-border-status-error-fybu9w, #d13212); fill: #fde0da;}.new-look-graph .drag-source {  opacity: 0.2;}.new-look-graph .edge, .new-look-graph path.starting-connection {  stroke-width: 1px;  stroke: var(--color-text-form-secondary-1c3szk, #687078);  marker-end: url(#large-arrowhead);}.new-look-graph .edge-label {  cursor: pointer;}.new-look-graph .edge-label rect {  stroke-width: 1px;  stroke: var(--color-border-control-default-jt0hca, #aab7b8);  fill: var(--color-background-container-header-g9rg0j, #fafafa);}.new-look-graph .edge-label.selected rect {  stroke: var(--color-border-status-info-0iedcr, #0073bb);  fill: var(--color-background-status-info-yq3r41, #f1faff);  stroke-width: 0.6px;}.new-look-graph .edge-label .label {  fill: var(--color-text-form-secondary-1c3szk, #687078);  font-family: Amazon Ember, Arial, Roboto, Arial, sans-serif;}/* centering the shape text */@-moz-document url-prefix() {  .new-look-graph .shape + text,  .new-look-graph .edge-label text {    transform: translateY(3.5px);  }}.new-look-graph .edge path {  marker-end: url(#large-arrowhead) !important;}.new-look-graph .edge.selected path{  stroke: var(--color-border-status-info-0iedcr, #0073bb);  stroke-width: 1.1px;}.new-look-graph .edge.dragging-over path, .new-look-graph  g.dragging-over .starting-connection {  stroke: #5C86FF;  stroke-width: 2px;}.new-look-graph .edge.dragging-over path, .new-look-graph .dragging-over path.starting-connection {  marker-end: url(#large-highlighted-arrowhead) !important;}.new-look-graph .edge.dragging-over .edge-label text {  fill: #5C86FF;}#large-highlighted-arrowhead {  fill: #5C86FF;}#large-highlighted-arrowhead path {  stroke: none;}.new-look-graph .edge.drop-not-supported path, g.drop-not-supported .starting-connection {  stroke: red;}.new-look-graph .edge.drop-not-supported .edge-label text {  fill: red;}.new-look-graph .edge.drop-not-supported path {  marker-end: url(#large-error-arrowhead) !important;}#large-error-arrowhead {  fill: red;}.node.Placeholder.dragging-over rect {  stroke: var(--color-border-status-info-0iedcr, #0073bb);  fill: var(--color-background-status-info-yq3r41, #f1faff);  stroke-width: 2px;}.node.Placeholder.dragging-over .label {  fill: var(--color-text-status-info-09r23g, #0073bb);}g.Placeholder rect {  stroke-dasharray: 5 4;  stroke: var(--color-border-dropdown-item-hover-d32f3f, #879596);  fill: var(--color-background-control-default-8xmy94, #ffffff);  stroke-width: 1px;}g.Placeholder .label {  font-style: italic;  fill: var(--color-text-input-placeholder-rtvjp5, #687078);}.node.Placeholder.drop-not-supported rect {  stroke: red;}.node.Placeholder.drop-not-supported .label {  fill: red;}</style><style>.line2 { font-size: 14px }</style></svg>